<?xml version="1.0"?>
<svg version="1.1" xmlns="http://www.w3.org/2000/svg" xmlns:xlink="http://www.w3.org/1999/xlink" width="50" height="50">
    <desc iVinci="yes" version="4.6" gridStep="20" showGrid="no" snapToGrid="no" codePlatform="0"/>
    <g id="Layer1" name="Layer 1" opacity="1">
        <g id="Shape1">
            <desc shapeID="1" type="0" basicInfo-basicType="0" basicInfo-roundedRectRadius="12" basicInfo-polygonSides="6" basicInfo-starPoints="5" bounding="rect(-24,-24,48,48)" text="" font-familyName="" font-pixelSize="20" font-bold="0" font-underline="0" font-alignment="1" strokeStyle="0" markerStart="0" markerEnd="0" shadowEnabled="0" shadowOffsetX="0" shadowOffsetY="2" shadowBlur="4" shadowOpacity="160" blurEnabled="0" blurRadius="4" transform="matrix(1,0,0,1,25,25)" pers-center="0,0" pers-size="0,0" pers-start="0,0" pers-end="0,0" locked="0" mesh="" flag=""/>
            <path id="shapePath1" d="M49,25 C49,38.2548 38.2548,49 25,49 C11.7452,49 1,38.2548 1,25 C1,11.7452 11.7452,1 25,1 C38.2548,1 49,11.7452 49,25 Z" style="stroke:#ff9c10;stroke-opacity:1;stroke-width:2;stroke-linejoin:miter;stroke-miterlimit:2;stroke-linecap:round;fill:none;"/>
        </g>
        <g id="Shape2">
            <desc shapeID="2" type="0" basicInfo-basicType="0" basicInfo-roundedRectRadius="12" basicInfo-polygonSides="6" basicInfo-starPoints="5" bounding="rect(-16.3775,-20.9035,32.755,41.807)" text="" font-familyName="" font-pixelSize="20" font-bold="0" font-underline="0" font-alignment="1" strokeStyle="0" markerStart="0" markerEnd="0" shadowEnabled="0" shadowOffsetX="0" shadowOffsetY="2" shadowBlur="4" shadowOpacity="160" blurEnabled="0" blurRadius="4" transform="matrix(1,0,0,1,25.0235,28.2945)" pers-center="0,0" pers-size="0,0" pers-start="0,0" pers-end="0,0" locked="0" mesh="" flag=""/>
            <path id="shapePath2" d="M29.933,35.528 C29.787,33.916 29.843,32.791 29.843,31.318 C30.573,30.935 31.881,28.493 32.102,26.43 C32.676,26.383 33.581,25.823 33.846,23.612 C33.989,22.425 33.421,21.757 33.075,21.547 C34.009,18.738 35.949,10.048 29.487,9.15 C28.822,7.982 27.119,7.391 24.906,7.391 C16.052,7.554 14.984,14.077 16.925,21.547 C16.58,21.757 16.012,22.425 16.154,23.612 C16.42,25.823 17.324,26.383 17.898,26.43 C18.118,28.492 19.478,30.935 20.21,31.318 C20.21,32.791 20.265,33.916 20.119,35.528 C18.858,38.918 12.382,39.183 8.646,42.452 C12.552,46.385 18.882,49.198 25.562,49.198 C32.242,49.198 40.094,43.924 41.401,42.485 C37.688,39.186 31.197,38.93 29.933,35.528 Z" style="stroke:none;fill-rule:nonzero;fill:#ff9c10;fill-opacity:1;"/>
        </g>
    </g>
</svg>
